<svg width="18" height="18" viewBox="0 0 18 18" fill="none" xmlns="http://www.w3.org/2000/svg">
<circle cx="9" cy="9" r="8" stroke="#ffffff" stroke-width="2"/>
<path d="M6.19531 5.28516H11.2605" stroke="#ffffff" stroke-width="2" stroke-linecap="round"/>
<path d="M2.17676 8.85352H9.83734" stroke="#ffffff" stroke-width="2" stroke-linecap="round"/>
<path d="M8.73308 14.7212C8.90078 14.861 9.1251 14.9123 9.33687 14.8593L9.58596 14.7971L10.1301 14.5878L11.2813 14.0854L11.8464 13.8133L12.274 13.5639C12.3236 13.535 12.3693 13.4998 12.4099 13.4592C12.675 13.1941 12.6703 12.7629 12.3995 12.5037L11.9092 12.0343L11.2343 11.2014C11.0429 10.9652 10.741 10.8478 10.4403 10.8926L10.3708 10.9029C10.1059 10.9424 9.88305 11.122 9.78827 11.3725L9.75562 11.4588C9.68883 11.6353 9.71438 11.8335 9.82376 11.9874L10.212 12.5333C10.2626 12.6044 10.2243 12.704 10.1391 12.723C10.1331 12.7243 10.1273 12.7261 10.1216 12.7283L9.48131 12.9761L8.8578 13.3096C8.67972 13.4049 8.54289 13.5623 8.47336 13.7519C8.39532 13.9648 8.40855 14.2004 8.50994 14.4032L8.55918 14.5016C8.60138 14.586 8.66059 14.6608 8.73308 14.7212Z" fill="#ffffff"/>
</svg>
